<svg width="34" height="34" viewBox="0 0 34 34" fill="none" xmlns="http://www.w3.org/2000/svg">
    <rect width="33.333" height="33.333" rx="16.666" fill="#FFC53D"/>
    <path fill-rule="evenodd" clip-rule="evenodd"
          d="M12.5 11.25a5.417 5.417 0 1 0 5.417 5.417 1.25 1.25 0 1 1 2.5 0A7.917 7.917 0 1 1 12.5 8.75a1.25 1.25 0 0 1 0 2.5Zm13.75 5.417a5.417 5.417 0 0 1-5.416 5.416 1.25 1.25 0 1 0 0 2.5 7.917 7.917 0 1 0-7.917-7.916 1.25 1.25 0 0 0 2.5 0 5.417 5.417 0 0 1 10.833 0Z"
          fill="#4F3422"/>
</svg>